<svg width="24" height="24" viewBox="0 0 24 24" fill="none" xmlns="http://www.w3.org/2000/svg">
<g clip-path="url(#clip0_1239_5192)">
<circle cx="12" cy="12" r="12" fill="#084BFF"/>
<path d="M17.0586 9.1085L10.1375 16.0296C10.0773 16.0901 10.0056 16.1381 9.92677 16.1708C9.8479 16.2036 9.76334 16.2204 9.67795 16.2204C9.59255 16.2204 9.50799 16.2036 9.42912 16.1708C9.35025 16.1381 9.27862 16.0901 9.21834 16.0296L6.19037 13.0016C6.13002 12.9412 6.08214 12.8696 6.04948 12.7907C6.01681 12.7119 6 12.6274 6 12.542C6 12.4566 6.01681 12.3721 6.04948 12.2933C6.08214 12.2144 6.13002 12.1428 6.19037 12.0824C6.25073 12.022 6.32238 11.9742 6.40124 11.9415C6.4801 11.9088 6.56462 11.892 6.64998 11.892C6.73533 11.892 6.81985 11.9088 6.89871 11.9415C6.97757 11.9742 7.04922 12.022 7.10958 12.0824L9.67849 14.6513L16.1405 8.19037C16.2624 8.06848 16.4277 8 16.6001 8C16.7725 8 16.9378 8.06848 17.0597 8.19037C17.1816 8.31227 17.2501 8.47759 17.2501 8.64998C17.2501 8.82236 17.1816 8.98768 17.0597 9.10958L17.0586 9.1085Z" fill="white"/>
</g>
<defs>
<clipPath id="clip0_1239_5192">
<rect width="24" height="24" fill="white"/>
</clipPath>
</defs>
</svg>
