<svg width="24" height="24" viewBox="0 0 24 24" fill="none" xmlns="http://www.w3.org/2000/svg">
<g clip-path="url(#clip0_1239_5174)">
<circle cx="12" cy="12" r="12" fill="#EA4232"/>
<path d="M16.7896 15.7788C16.9237 15.913 16.9991 16.0949 16.9991 16.2846C16.9991 16.4743 16.9237 16.6562 16.7896 16.7904C16.6554 16.9245 16.4735 16.9999 16.2838 16.9999C16.0941 16.9999 15.9122 16.9245 15.778 16.7904L12.0001 13.0113L8.22106 16.7892C8.08692 16.9233 7.90499 16.9987 7.71528 16.9987C7.52558 16.9987 7.34364 16.9233 7.2095 16.7892C7.07536 16.655 7 16.4731 7 16.2834C7 16.0937 7.07536 15.9118 7.2095 15.7776L10.9886 11.9997L7.21069 8.22068C7.07655 8.08654 7.00119 7.9046 7.00119 7.7149C7.00119 7.5252 7.07655 7.34326 7.21069 7.20912C7.34483 7.07498 7.52677 6.99962 7.71647 6.99962C7.90618 6.99962 8.08811 7.07498 8.22225 7.20912L12.0001 10.9882L15.7792 7.20852C15.9133 7.07438 16.0953 6.99902 16.285 6.99902C16.4747 6.99902 16.6566 7.07438 16.7908 7.20852C16.9249 7.34267 17.0003 7.5246 17.0003 7.7143C17.0003 7.90401 16.9249 8.08594 16.7908 8.22008L13.0117 11.9997L16.7896 15.7788Z" fill="white"/>
</g>
<defs>
<clipPath id="clip0_1239_5174">
<rect width="24" height="24" fill="white"/>
</clipPath>
</defs>
</svg>
